<svg width="20" height="21" viewBox="0 0 20 21" fill="none" xmlns="http://www.w3.org/2000/svg">
<path d="M9.24974 19.3952H5.74978C2.49149 19.3952 1.0415 17.9452 1.0415 14.6869V11.1868C1.0415 7.92852 2.49149 6.47852 5.74978 6.47852H9.24974C12.508 6.47852 13.958 7.92852 13.958 11.1868V14.6869C13.958 17.9452 12.508 19.3952 9.24974 19.3952ZM5.74978 7.72852C3.16648 7.72852 2.29149 8.60352 2.29149 11.1868V14.6869C2.29149 17.2702 3.16648 18.1452 5.74978 18.1452H9.24974C11.833 18.1452 12.708 17.2702 12.708 14.6869V11.1868C12.708 8.60352 11.833 7.72852 9.24974 7.72852H5.74978Z" fill="#A682FF"/>
<path d="M14.2502 14.3952H13.3336C12.9919 14.3952 12.7086 14.1118 12.7086 13.7702V11.1868C12.7086 8.60352 11.8336 7.72852 9.25029 7.72852H6.66699C6.32532 7.72852 6.04199 7.44518 6.04199 7.10352V6.18685C6.04199 2.92852 7.49198 1.47852 10.7503 1.47852H14.2502C17.5085 1.47852 18.9585 2.92852 18.9585 6.18685V9.68685C18.9585 12.9452 17.5085 14.3952 14.2502 14.3952ZM13.9586 13.1452H14.2502C16.8335 13.1452 17.7085 12.2702 17.7085 9.68685V6.18685C17.7085 3.60352 16.8335 2.72852 14.2502 2.72852H10.7503C8.16697 2.72852 7.29198 3.60352 7.29198 6.18685V6.47852H9.25029C12.5086 6.47852 13.9586 7.92851 13.9586 11.1868V13.1452Z" fill="#A682FF"/>
</svg>
