<svg width="19" height="21" viewBox="0 0 19 21" fill="none" xmlns="http://www.w3.org/2000/svg">
<path d="M15.675 20.9365C14.8917 20.9365 14.2208 20.6574 13.6625 20.099C13.1042 19.5407 12.825 18.8699 12.825 18.0865C12.825 17.9699 12.8375 17.8324 12.8625 17.674C12.8875 17.5157 12.925 17.3699 12.975 17.2365L5.4 12.8365C5.15 13.1199 4.84167 13.349 4.475 13.524C4.10833 13.699 3.73333 13.7865 3.35 13.7865C2.56667 13.7865 1.89583 13.5074 1.3375 12.949C0.779167 12.3907 0.5 11.7199 0.5 10.9365C0.5 10.1365 0.779167 9.46152 1.3375 8.91152C1.89583 8.36152 2.56667 8.08652 3.35 8.08652C3.73333 8.08652 4.1 8.16152 4.45 8.31152C4.8 8.46152 5.11667 8.67819 5.4 8.96152L12.975 4.61152C12.925 4.49486 12.8875 4.36152 12.8625 4.21152C12.8375 4.06152 12.825 3.91986 12.825 3.78652C12.825 2.98652 13.1042 2.31152 13.6625 1.76152C14.2208 1.21152 14.8917 0.936523 15.675 0.936523C16.475 0.936523 17.15 1.21152 17.7 1.76152C18.25 2.31152 18.525 2.98652 18.525 3.78652C18.525 4.56986 18.25 5.24069 17.7 5.79902C17.15 6.35736 16.475 6.63652 15.675 6.63652C15.2917 6.63652 14.9208 6.57402 14.5625 6.44902C14.2042 6.32402 13.9 6.11986 13.65 5.83652L6.075 10.0365C6.10833 10.1699 6.1375 10.324 6.1625 10.499C6.1875 10.674 6.2 10.8199 6.2 10.9365C6.2 11.0532 6.1875 11.1782 6.1625 11.3115C6.1375 11.4449 6.10833 11.5782 6.075 11.7115L13.65 16.0115C13.9 15.7782 14.1917 15.5907 14.525 15.449C14.8583 15.3074 15.2417 15.2365 15.675 15.2365C16.475 15.2365 17.15 15.5115 17.7 16.0615C18.25 16.6115 18.525 17.2865 18.525 18.0865C18.525 18.8699 18.25 19.5407 17.7 20.099C17.15 20.6574 16.475 20.9365 15.675 20.9365ZM15.675 5.13652C16.0583 5.13652 16.3792 5.00736 16.6375 4.74902C16.8958 4.49069 17.025 4.16986 17.025 3.78652C17.025 3.40319 16.8958 3.08236 16.6375 2.82402C16.3792 2.56569 16.0583 2.43652 15.675 2.43652C15.2917 2.43652 14.9708 2.56569 14.7125 2.82402C14.4542 3.08236 14.325 3.40319 14.325 3.78652C14.325 4.16986 14.4542 4.49069 14.7125 4.74902C14.9708 5.00736 15.2917 5.13652 15.675 5.13652ZM3.35 12.2865C3.73333 12.2865 4.05417 12.1574 4.3125 11.899C4.57083 11.6407 4.7 11.3199 4.7 10.9365C4.7 10.5532 4.57083 10.2324 4.3125 9.97402C4.05417 9.71569 3.73333 9.58652 3.35 9.58652C2.96667 9.58652 2.64583 9.71569 2.3875 9.97402C2.12917 10.2324 2 10.5532 2 10.9365C2 11.3199 2.12917 11.6407 2.3875 11.899C2.64583 12.1574 2.96667 12.2865 3.35 12.2865ZM15.675 19.4365C16.0583 19.4365 16.3792 19.3074 16.6375 19.049C16.8958 18.7907 17.025 18.4699 17.025 18.0865C17.025 17.7032 16.8958 17.3824 16.6375 17.124C16.3792 16.8657 16.0583 16.7365 15.675 16.7365C15.2917 16.7365 14.9708 16.8657 14.7125 17.124C14.4542 17.3824 14.325 17.7032 14.325 18.0865C14.325 18.4699 14.4542 18.7907 14.7125 19.049C14.9708 19.3074 15.2917 19.4365 15.675 19.4365Z" fill="white"/>
</svg>
